<?xml version="1.0" encoding="UTF-8"?>
<!DOCTYPE svg PUBLIC "-//W3C//DTD SVG 1.1//EN" "http://www.w3.org/Graphics/SVG/1.1/DTD/svg11.dtd">
<!-- Creator: CorelDRAW 2020 (64 Bit) -->
<svg xmlns="http://www.w3.org/2000/svg" xml:space="preserve" width="254mm" height="127mm" version="1.1" style="shape-rendering:geometricPrecision; text-rendering:geometricPrecision; image-rendering:optimizeQuality; fill-rule:evenodd; clip-rule:evenodd"
viewBox="0 0 25400 12700"
 xmlns:xlink="http://www.w3.org/1999/xlink"
 xmlns:xodm="http://www.corel.com/coreldraw/odm/2003"
 enable-background="new 0 0 512 512">
 <defs>
  <style type="text/css">
   <![CDATA[
    .fil0 {fill:#727376;fill-rule:nonzero}
   ]]>
  </style>
 </defs>
 <g id="Camada_x0020_1">
  <metadata id="CorelCorpID_0Corel-Layer"/>
  <g id="_001-facebook.svg">
   <path class="fil0" d="M18933.02 6350c0,-3442.77 -2790.26,-6233.02 -6233.02,-6233.02 -3442.76,0 -6233.02,2790.26 -6233.02,6233.02 0,3442.76 2790.26,6233.02 6233.02,6233.02 36.52,0 73.05,0 109.56,-2.44l0 -4850.07 -1339.13 0.01 0 -1560.69 1339.13 0 0 -1149.21c0,-1331.82 813.22,-2057.39 2001.39,-2057.39 569.74,0 1059.13,41.39 1200.35,60.88l0 1392.69 -818.09 -0.01c-645.22,0 -771.83,306.79 -771.83,757.21l0 993.39 1546.09 0 -202.08 1560.69 -1344.01 0 0 4613.9c2605.21,-747.48 4511.64,-3145.74 4511.64,-5991.99l0 0.01z"/>
  </g>
 </g>
</svg>
