<?xml version="1.0" encoding="UTF-8"?>
<!DOCTYPE svg PUBLIC "-//W3C//DTD SVG 1.1//EN" "http://www.w3.org/Graphics/SVG/1.1/DTD/svg11.dtd">
<!-- Creator: CorelDRAW 2020 (64 Bit) -->
<svg xmlns="http://www.w3.org/2000/svg" xml:space="preserve" width="254mm" height="127mm" version="1.1" style="shape-rendering:geometricPrecision; text-rendering:geometricPrecision; image-rendering:optimizeQuality; fill-rule:evenodd; clip-rule:evenodd"
viewBox="0 0 25400 12700"
 xmlns:xlink="http://www.w3.org/1999/xlink"
 xmlns:xodm="http://www.corel.com/coreldraw/odm/2003">
 <defs>
  <style type="text/css">
   <![CDATA[
    .fil0 {fill:#727376;fill-rule:nonzero}
   ]]>
  </style>
 </defs>
 <g id="Camada_x0020_1">
  <metadata id="CorelCorpID_0Corel-Layer"/>
  <g id="_011-instagram.svg">
   <path class="fil0" d="M13893.04 6350c0,658.91 -534.13,1193.04 -1193.04,1193.04 -658.91,0 -1193.04,-534.13 -1193.04,-1193.04 0,-658.91 534.13,-1193.04 1193.04,-1193.04 658.91,0 1193.04,534.13 1193.04,1193.04zm0 0z"/>
   <path class="fil0" d="M15490.1 4239.16c-57.36,-155.4 -148.85,-296.07 -267.74,-411.53 -115.45,-118.88 -256.03,-210.38 -411.53,-267.73 -126.12,-48.98 -315.57,-107.28 -664.53,-123.17 -377.48,-17.21 -490.66,-20.93 -1446.31,-20.93 -955.74,0 -1068.92,3.62 -1446.31,20.83 -348.95,15.98 -538.5,74.28 -664.52,123.26 -155.51,57.35 -296.17,148.84 -411.54,267.73 -118.88,115.46 -210.38,256.03 -267.83,411.54 -48.98,126.11 -107.28,315.66 -123.17,664.61 -17.21,377.4 -20.92,490.57 -20.92,1446.31 0,955.65 3.71,1068.83 20.92,1446.31 15.89,348.95 74.19,538.41 123.17,664.53 57.45,155.5 148.85,296.07 267.73,411.53 115.46,118.89 256.04,210.38 411.54,267.74 126.12,49.07 315.66,107.37 664.62,123.25 377.39,17.22 490.47,20.83 1446.21,20.83 955.84,0 1069.01,-3.61 1446.31,-20.83 348.95,-15.88 538.51,-74.18 664.62,-123.25 312.14,-120.41 558.86,-367.12 679.26,-679.26 48.98,-126.12 107.28,-315.57 123.25,-664.53 17.22,-377.48 20.83,-490.66 20.83,-1446.31 0,-955.74 -3.61,-1068.92 -20.83,-1446.31 -15.88,-348.95 -74.18,-538.51 -123.25,-664.62l0.02 0zm-2790.1 3948.71c-1015.09,0 -1837.97,-822.78 -1837.97,-1837.87 0,-1015.09 822.88,-1837.87 1837.97,-1837.87 1014.99,0 1837.87,822.78 1837.87,1837.87 0,1015.09 -822.88,1837.87 -1837.87,1837.87zm1910.53 -3318.9c-237.19,0 -429.5,-192.31 -429.5,-429.5 0,-237.2 192.31,-429.51 429.5,-429.51 237.2,0 429.51,192.31 429.51,429.51 -0.09,237.19 -192.31,429.5 -429.51,429.5zm0 0z"/>
   <path class="fil0" d="M12700 116.98c-3441.87,0 -6233.02,2791.15 -6233.02,6233.02 0,3441.87 2791.15,6233.02 6233.02,6233.02 3441.87,0 6233.02,-2791.15 6233.02,-6233.02 0,-3441.87 -2791.15,-6233.02 -6233.02,-6233.02zm3557.53 7708.63c-17.31,381 -77.9,641.13 -166.35,868.81 -185.94,480.78 -565.99,860.83 -1046.76,1046.77 -227.59,88.45 -487.82,148.94 -868.72,166.34 -381.67,17.41 -503.6,21.59 -1475.61,21.59 -972.1,0 -1093.94,-4.18 -1475.7,-21.59 -380.9,-17.4 -641.13,-77.89 -868.72,-166.34 -238.91,-89.88 -455.19,-230.73 -633.99,-412.87 -182.04,-178.71 -322.89,-395.08 -412.77,-633.9 -88.45,-227.59 -149.04,-487.81 -166.35,-868.71 -17.59,-381.77 -21.68,-503.7 -21.68,-1475.7 0,-972.01 4.09,-1093.94 21.59,-1475.61 17.31,-381 77.79,-641.13 166.25,-868.82 89.87,-238.82 230.82,-455.19 412.95,-633.89 178.71,-182.13 395.08,-322.99 633.9,-412.87 227.69,-88.45 487.81,-148.94 868.81,-166.35 381.68,-17.4 503.6,-21.58 1475.61,-21.58 972.01,0 1093.94,4.18 1475.61,21.68 381,17.31 641.13,77.8 868.82,166.15 238.82,89.88 455.19,230.83 633.99,412.96 182.04,178.8 322.99,395.08 412.77,633.9 88.55,227.68 149.04,487.81 166.44,868.81 17.41,381.67 21.49,503.6 21.49,1475.61 0,972.01 -4.09,1093.94 -21.58,1475.61zm0 0z"/>
  </g>
 </g>
</svg>
