<?xml version="1.0" encoding="UTF-8"?>
<!DOCTYPE svg PUBLIC "-//W3C//DTD SVG 1.1//EN" "http://www.w3.org/Graphics/SVG/1.1/DTD/svg11.dtd">
<!-- Creator: CorelDRAW 2020 (64 Bit) -->
<svg xmlns="http://www.w3.org/2000/svg" xml:space="preserve" width="254mm" height="127mm" version="1.1" style="shape-rendering:geometricPrecision; text-rendering:geometricPrecision; image-rendering:optimizeQuality; fill-rule:evenodd; clip-rule:evenodd"
viewBox="0 0 25400 12700"
 xmlns:xlink="http://www.w3.org/1999/xlink"
 xmlns:xodm="http://www.corel.com/coreldraw/odm/2003">
 <defs>
  <style type="text/css">
   <![CDATA[
    .fil0 {fill:#727376;fill-rule:nonzero}
   ]]>
  </style>
 </defs>
 <g id="Camada_x0020_1">
  <metadata id="CorelCorpID_0Corel-Layer"/>
  <g id="_003-whatsapp.svg">
   <path class="fil0" d="M12700 111.89c-3444.69,0 -6238.11,2793.42 -6238.11,6238.11 0,3444.69 2793.42,6238.11 6238.11,6238.11 3444.69,0 6238.11,-2793.42 6238.11,-6238.11 0,-3444.69 -2793.42,-6238.11 -6238.11,-6238.11zm132.21 9870.12c-0.09,0 0.1,0 0,0l-1.52 0c-624.9,-0.28 -1238.94,-156.96 -1784.26,-454.32l-1979.2 519.04 529.71 -1934.17c-326.77,-565.98 -498.68,-1208.11 -498.39,-1865.94 0.85,-2057.92 1675.75,-3732.14 3733.66,-3732.14 998.7,0.38 1936.18,389.11 2641.03,1094.54 704.95,705.52 1092.93,1643.29 1092.55,2640.56 -0.86,2058.02 -1675.94,3732.43 -3733.58,3732.43l0 0zm0 0z"/>
   <path class="fil0" d="M12833.45 3144.9c-1711.73,0 -3103.83,1391.52 -3104.59,3102.01 -0.19,586.16 163.91,1156.99 474.5,1650.91l73.77 117.36 -313.54 1144.81 1174.5 -308.02 113.36 67.2c476.41,282.71 1022.59,432.24 1579.42,432.43l1.25 0c1710.4,0 3102.49,-1391.62 3103.25,-3102.21 0.28,-828.97 -322.21,-1608.35 -908.07,-2194.7 -585.87,-586.34 -1365.06,-909.5 -2193.85,-909.79l0 0zm1825.29 4435.76c-77.77,217.79 -450.42,416.63 -629.65,443.48 -160.77,23.99 -364.09,33.98 -587.59,-36.94 -135.54,-43.02 -309.25,-100.42 -531.9,-196.46 -935.77,-403.97 -1546.96,-1345.94 -1593.6,-1408.19 -46.64,-62.24 -380.93,-505.72 -380.93,-964.8 0,-458.99 241.01,-684.67 326.49,-777.96 85.57,-93.38 186.65,-116.7 248.81,-116.7 62.16,0 124.41,0.58 178.77,3.24 57.3,2.86 134.21,-21.8 209.88,160.11 77.77,186.75 264.33,645.74 287.65,692.38 23.32,46.73 38.84,101.18 7.81,163.43 -31.13,62.25 -134.5,196.56 -233.21,318.97 -41.4,51.31 -95.37,96.99 -40.93,190.38 54.35,93.28 241.67,398.73 518.96,646.02 356.37,317.73 656.97,416.15 750.25,462.89 93.19,46.64 147.63,38.83 202.08,-23.32 54.36,-62.25 233.21,-272.33 295.37,-365.7 62.16,-93.38 124.41,-77.77 209.89,-46.64 85.57,31.03 544.17,256.72 637.46,303.36 93.28,46.73 155.43,70.05 178.76,108.99 23.41,38.93 23.41,225.58 -54.36,443.47l-0.01 -0.01zm0 0z"/>
  </g>
 </g>
</svg>
