<?xml version="1.0" encoding="UTF-8"?>
<!DOCTYPE svg PUBLIC "-//W3C//DTD SVG 1.1//EN" "http://www.w3.org/Graphics/SVG/1.1/DTD/svg11.dtd">
<!-- Creator: CorelDRAW 2020 (64 Bit) -->
<svg xmlns="http://www.w3.org/2000/svg" xml:space="preserve" width="254mm" height="127mm" version="1.1" style="shape-rendering:geometricPrecision; text-rendering:geometricPrecision; image-rendering:optimizeQuality; fill-rule:evenodd; clip-rule:evenodd"
viewBox="0 0 25400 12700"
 xmlns:xlink="http://www.w3.org/1999/xlink"
 xmlns:xodm="http://www.corel.com/coreldraw/odm/2003">
 <defs>
  <style type="text/css">
   <![CDATA[
    .fil0 {fill:#848688;fill-rule:nonzero}
    .fil1 {fill:#727376;fill-rule:nonzero}
   ]]>
  </style>
 </defs>
 <g id="Camada_x0020_1">
  <metadata id="CorelCorpID_0Corel-Layer"/>
  <g id="_008-youtube.svg">
   <path class="fil0" d="M11928.27 7510.77l2015.41 -1160.77 -2015.41 -1160.77 0 2321.54zm0 0z"/>
   <path class="fil1" d="M12700 154.22c-3421.31,0 -6195.78,2774.47 -6195.78,6195.78 0,3421.31 2774.47,6195.78 6195.78,6195.78 3421.31,0 6195.78,-2774.47 6195.78,-6195.78 0,-3421.31 -2774.47,-6195.78 -6195.78,-6195.78zm3871.42 6202.11c0,0 0,1256.53 -159.4,1862.44 -89.33,331.65 -350.83,593.14 -682.48,682.39 -605.91,159.49 -3029.54,159.49 -3029.54,159.49 0,0 -2417.3,0 -3029.54,-165.82 -331.65,-89.25 -593.14,-350.84 -682.48,-682.49 -159.5,-599.48 -159.5,-1862.35 -159.5,-1862.35 0,0 0,-1256.43 159.5,-1862.34 89.24,-331.65 357.17,-599.58 682.48,-688.82 605.91,-159.5 3029.54,-159.5 3029.54,-159.5 0,0 2423.63,0 3029.54,165.83 331.65,89.25 593.14,350.84 682.48,682.49 165.83,605.9 159.4,1868.68 159.4,1868.68l0 0zm0 0z"/>
  </g>
 </g>
</svg>
