<?xml version="1.0" encoding="UTF-8"?>
<!DOCTYPE svg PUBLIC "-//W3C//DTD SVG 1.1//EN" "http://www.w3.org/Graphics/SVG/1.1/DTD/svg11.dtd">
<!-- Creator: CorelDRAW 2020 (64 Bit) -->
<svg xmlns="http://www.w3.org/2000/svg" xml:space="preserve" width="254mm" height="127mm" version="1.1" style="shape-rendering:geometricPrecision; text-rendering:geometricPrecision; image-rendering:optimizeQuality; fill-rule:evenodd; clip-rule:evenodd"
viewBox="0 0 25400 12700"
 xmlns:xlink="http://www.w3.org/1999/xlink"
 xmlns:xodm="http://www.corel.com/coreldraw/odm/2003">
 <defs>
  <style type="text/css">
   <![CDATA[
    .str0 {stroke:#4B4B4D;stroke-width:211.67;stroke-linecap:round;stroke-linejoin:round;stroke-miterlimit:22.9256}
    .fil2 {fill:none}
    .fil1 {fill:#4B4B4D;fill-rule:nonzero}
    .fil0 {fill:#4B4B4D;fill-rule:nonzero}
   ]]>
  </style>
 </defs>
 <g id="Camada_x0020_1">
  <metadata id="CorelCorpID_0Corel-Layer"/>
  <g id="_2219019216640">
   <path class="fil0" d="M6019.42 9799.22c-19.07,89.37 -35.97,177.12 -49.59,262.68l-35.43 195.11c-105.72,22.34 -188.02,37.06 -246.88,43.05 -59.4,6 -116.63,9.27 -172.22,9.27 -90.46,0 -171.12,-7.63 -241.43,-23.44 -70.3,-15.26 -129.16,-43.59 -176.03,-84.47 -46.87,-40.87 -79.02,-88.29 -95.92,-141.15 -16.89,-53.41 -25.61,-110.09 -25.61,-169.5 0,-10.9 0.54,-29.43 1.63,-56.67 1.09,-27.25 4.91,-87.75 10.9,-181.49l34.88 -553.17 -250.15 0c5.45,-73.57 10.35,-170.03 14.17,-289.93l4.9 -148.24 265.42 0c6.54,-49.05 14.71,-155.87 23.98,-320.46l273.58 -56.68c50.14,-9.81 156.96,-34.33 320.46,-74.11 -7.63,139.51 -13.08,289.93 -15.81,451.25l362.42 0c-8.72,220.72 -12.53,366.78 -12.53,438.17l-366.24 0 -19.07 400.03c-2.18,59.4 -3.27,97.55 -3.27,114.99 0,51.23 5.45,93.74 16.89,128.08 10.9,33.79 31.07,58.31 59.41,73.57 28.34,14.72 59.4,22.35 93.74,22.35 25.61,0 52.32,-1.64 80.11,-5.45 27.8,-3.82 76.84,-14.72 147.69,-33.79z"/>
   <path id="1" class="fil0" d="M6724.46 8432.37c6.54,-126.44 9.81,-226.17 9.81,-299.74 0,-21.26 -0.55,-50.14 -1.64,-86.11 128.62,2.18 235.98,3.27 323.18,3.27 119.9,0 225.09,-1.09 315.55,-3.27 -3.27,32.7 -5.45,60.49 -6.54,82.84l-9.26 197.83c-2.18,29.43 -3.27,64.85 -3.27,105.18 -105.18,-2.18 -206.01,-3.27 -303.02,-3.27 -99.73,0 -208.18,1.09 -324.81,3.27zm-101.37 1834.45c14.71,-130.25 25.61,-237.07 32.7,-321 7.63,-84.48 14.71,-191.84 21.25,-323.18 7.09,-130.8 13.08,-275.77 17.99,-434.36 5.45,-159.14 9.81,-343.35 12.53,-553.17 138.43,2.18 249.06,3.27 331.9,3.27 75.76,0 184.21,-1.09 325.91,-3.27 -17.44,201.1 -29.98,378.23 -37.06,530.82 -7.63,152.06 -12.54,313.37 -14.72,483.96 -3.81,302.47 -5.99,508.48 -5.99,616.93 -126.98,-2.18 -235.98,-3.27 -328.09,-3.27 -90.46,0 -209.27,1.09 -356.42,3.27z"/>
   <path id="2" class="fil0" d="M8067.68 10266.82l45.78 -770.08 26.16 -602.76 3.27 -258.87c117.17,2.18 220.17,3.27 309.55,3.27 101.37,0 199.47,-1.09 295.39,-3.27l-11.44 214.73c32.69,-42.51 61.03,-75.76 83.92,-98.1 22.35,-22.89 50.69,-44.69 83.39,-65.95 33.24,-20.71 67.03,-37.06 102.46,-49.05 34.88,-12.53 74.66,-22.34 118.26,-29.97 43.6,-7.08 89.38,-10.9 136.79,-10.9 54.5,0 104.64,4.36 150.42,13.63 45.78,8.72 85.02,20.16 118.27,34.33 32.69,13.62 61.58,29.43 86.1,47.96 24.53,17.98 45.78,38.15 64.31,61.04 19.08,22.89 40.33,56.13 64.86,99.73 46.87,-67.58 95.92,-119.35 148.24,-154.78 51.77,-34.88 111.17,-60.49 177.66,-77.38 66.49,-16.35 134.62,-24.53 204.92,-24.53 92.11,0 179.3,13.08 261.05,39.78 81.75,26.71 149.33,72.49 201.65,138.43 52.86,65.4 79.02,149.88 79.02,254.52 0,48.5 -3.27,122.62 -10.35,221.81 -6.54,98.64 -15.81,268.68 -27.79,509.57 -11.99,240.88 -18.53,409.83 -19.62,506.84 -98.1,-2.18 -192.93,-3.27 -284.49,-3.27 -111.72,0 -228.35,1.09 -350.98,3.27 10.36,-135.16 20.71,-304.65 31.07,-508.48 10.9,-203.83 15.8,-344.98 15.8,-423.46 0,-68.67 -7.63,-120.44 -23.43,-154.23 -15.81,-33.79 -35.97,-56.68 -60.5,-69.22 -24.52,-12.53 -51.77,-18.53 -81.2,-18.53 -31.07,0 -58.31,6 -81.75,17.44 -25.07,13.08 -46.87,32.7 -65.94,59.41 -25.07,35.42 -45.78,80.11 -61.04,133.52 -13.08,41.97 -22.89,105.19 -29.98,191.29 -7.63,87.2 -13.62,202.2 -17.98,344.44l-13.08 427.82c-114.45,-2.18 -218,-3.27 -309.56,-3.27 -94.28,0 -204.92,1.09 -332.44,3.27 9.81,-94.83 20.71,-253.97 33.24,-477.41 13.08,-223.45 19.08,-372.78 19.08,-447.99 0,-63.76 -6,-111.72 -19.08,-143.33 -12.53,-32.16 -30.52,-57.23 -53.95,-76.3 -22.89,-19.08 -53.41,-28.89 -92.11,-28.89 -41.42,0 -77.93,11.99 -109,36.52 -31.06,24.52 -57.77,59.4 -79.57,105.18 -21.8,45.78 -37.6,109 -46.32,189.12 -9.26,80.11 -17.44,202.73 -23.98,367.32 -7.08,165.13 -11.44,323.73 -13.62,475.78 -128.62,-2.18 -232.72,-3.27 -312.83,-3.27 -88.29,0 -197.83,1.09 -328.63,3.27z"/>
   <path id="3" class="fil0" d="M13106.5 9786.14c-13.63,63.76 -39.79,217.45 -78.48,461.06 -123.71,25.07 -227.81,41.42 -312.28,49.59 -84.48,8.18 -169.49,12.54 -256.15,12.54 -126.98,0 -244.16,-8.72 -350.43,-26.16 -106.82,-17.44 -198.92,-49.05 -276.31,-93.74 -77.39,-44.14 -142.24,-99.73 -194.56,-166.22 -52.32,-66.49 -92.11,-145.52 -119.36,-237.07 -27.25,-91.56 -40.87,-185.85 -40.87,-282.31 0,-136.25 27.25,-269.77 81.75,-400.03 53.95,-130.25 124.26,-232.16 209.82,-305.19 86.11,-73.58 184.75,-125.9 296.48,-156.42 111.72,-31.06 226.71,-46.32 343.89,-46.32 120.99,0 237.07,14.17 347.16,42.51 110.63,27.79 203.83,77.39 280.67,147.15 76.84,70.3 131.34,149.33 164.04,237.62 32.16,88.28 48.51,183.66 48.51,285.57 0,61.04 -6.54,128.08 -19.62,202.74l-1123.23 1.63c-1.09,16.9 -1.64,32.16 -1.64,46.33 0,114.45 41.42,198.92 123.71,253.42 82.3,53.95 182.58,81.2 301.39,81.2 70.3,0 150.96,-8.17 241.43,-24.52 89.92,-16.35 201.65,-44.14 334.08,-83.38zm-986.44 -516.66l528.64 0c1.09,-17.98 1.64,-33.24 1.64,-46.32 0,-55.05 -9.81,-102.46 -29.43,-141.7 -20.16,-39.24 -48.5,-67.58 -85.02,-85.56 -37.06,-17.99 -78.48,-27.25 -124.26,-27.25 -32.15,0 -62.67,4.9 -92.65,15.26 -29.97,9.81 -57.22,25.07 -81.2,44.69 -23.98,19.61 -44.14,41.96 -59.95,67.57 -15.8,25.07 -27.79,50.14 -35.42,73.58 -7.09,23.98 -14.72,57.22 -22.35,99.73z"/>
   <path id="4" class="fil0" d="M15668.87 10266.82c-113.91,-2.18 -208.74,-3.27 -284.49,-3.27 -85.56,0 -189.11,1.09 -310.65,3.27l9.27 -201.65c-41.42,40.33 -77.94,73.03 -108.46,98.1 -31.06,25.07 -70.84,49.05 -119.35,72.49 -48.5,23.43 -100.28,41.41 -156.41,54.49 -55.59,12.54 -113.36,19.08 -173.31,19.08 -101.91,0 -197.83,-18.53 -286.67,-56.13 -88.83,-37.06 -164.58,-89.93 -227.26,-158.6 -62.67,-68.67 -109.54,-150.42 -140.61,-244.15 -31.06,-94.29 -46.32,-192.39 -46.32,-293.21 0,-143.88 28.34,-284.49 85.02,-421.83 56.13,-137.33 130.25,-245.24 221.27,-323.72 91.55,-79.03 194.56,-134.62 309.01,-167.32 114.44,-32.15 238.7,-48.5 372.23,-48.5 88.29,0 191.83,7.63 310.1,22.89 8.17,-126.98 13.08,-304.65 15.8,-533 130.8,2.18 237.62,3.27 320.46,3.27 107.36,0 215.27,-1.09 324.81,-3.27 -29.97,316.09 -56.67,702.49 -79.56,1158.65 -22.89,455.62 -34.88,796.78 -34.88,1022.41zm-568.43 -1232.77c-56.68,-13.08 -110.09,-19.62 -160.23,-19.62 -104.09,0 -192.38,20.16 -264.87,59.94 -72.48,39.79 -128.61,101.92 -167.85,186.94 -38.7,84.47 -58.32,167.86 -58.32,249.6 0,62.13 10.9,117.72 32.7,166.77 22.35,49.6 55.59,88.84 101.37,117.72 45.23,28.89 95.92,43.06 151.51,43.06 58.86,0 112.27,-16.35 161.32,-49.6 48.5,-32.7 87.74,-81.2 118.26,-144.97 30.52,-63.76 51.77,-140.06 62.67,-227.8 11.45,-87.75 19.08,-215.28 23.44,-382.04z"/>
   <path id="5" class="fil0" d="M18021.41 9786.14c-13.63,63.76 -39.79,217.45 -78.48,461.06 -123.71,25.07 -227.81,41.42 -312.28,49.59 -84.48,8.18 -169.49,12.54 -256.15,12.54 -126.98,0 -244.16,-8.72 -350.43,-26.16 -106.82,-17.44 -198.92,-49.05 -276.31,-93.74 -77.39,-44.14 -142.24,-99.73 -194.56,-166.22 -52.32,-66.49 -92.11,-145.52 -119.36,-237.07 -27.25,-91.56 -40.87,-185.85 -40.87,-282.31 0,-136.25 27.25,-269.77 81.75,-400.03 53.95,-130.25 124.26,-232.16 209.82,-305.19 86.11,-73.58 184.75,-125.9 296.48,-156.42 111.72,-31.06 226.71,-46.32 343.89,-46.32 120.99,0 237.07,14.17 347.16,42.51 110.63,27.79 203.83,77.39 280.67,147.15 76.84,70.3 131.34,149.33 164.04,237.62 32.16,88.28 48.51,183.66 48.51,285.57 0,61.04 -6.54,128.08 -19.62,202.74l-1123.23 1.63c-1.09,16.9 -1.64,32.16 -1.64,46.33 0,114.45 41.42,198.92 123.71,253.42 82.3,53.95 182.58,81.2 301.39,81.2 70.3,0 150.96,-8.17 241.43,-24.52 89.92,-16.35 201.65,-44.14 334.08,-83.38zm-986.44 -516.66l528.64 0c1.09,-17.98 1.64,-33.24 1.64,-46.32 0,-55.05 -9.81,-102.46 -29.43,-141.7 -20.16,-39.24 -48.5,-67.58 -85.02,-85.56 -37.06,-17.99 -78.48,-27.25 -124.26,-27.25 -32.15,0 -62.67,4.9 -92.65,15.26 -29.97,9.81 -57.22,25.07 -81.2,44.69 -23.98,19.61 -44.14,41.96 -59.95,67.57 -15.8,25.07 -27.79,50.14 -35.42,73.58 -7.09,23.98 -14.72,57.22 -22.35,99.73z"/>
   <path id="6" class="fil0" d="M19224.56 10266.82l-168.95 -524.28 -381.49 -1107.43c121.53,2.18 233.8,3.27 338.44,3.27 108.45,0 210.37,-1.09 306.29,-3.27 17.98,73.57 53.41,202.19 106.82,385.86 53.4,183.66 111.72,402.75 175.48,656.17l41.42 -132.44c6.54,-16.35 31.61,-84.47 75.21,-204.91l253.97 -704.68c114.99,2.18 223.45,3.27 325.36,3.27 105.73,0 215.27,-1.09 329.18,-3.27l-220.18 474.69 -410.38 942.84 -87.75 214.18c-125.89,-2.18 -236.52,-3.27 -332.44,-3.27 -104.1,0 -221.27,1.09 -350.98,3.27z"/>
   <path class="fil1" d="M10087.28 12209.65l36.24 0c37.25,0 69.04,12.99 95.7,39.31 26.67,26.32 40,58.1 40,95.36 0,38.63 -13.33,71.1 -40.34,97.08 -27,25.97 -58.79,38.96 -95.36,38.96l-36.24 0c-37.25,0 -69.04,-12.99 -95.7,-39.31 -26.66,-26.31 -39.99,-58.1 -39.99,-95.7 0,-38.63 13.33,-70.76 40.33,-96.74 27,-25.97 58.79,-38.96 95.36,-38.96z"/>
   <path id="1" class="fil1" d="M11457.74 11582.08l0 129.21c58.79,-59.82 111.77,-100.84 159.28,-123.74 47.51,-22.9 100.83,-34.18 160.31,-34.18 63.92,0 122.37,13.67 175.01,41.02 37.6,19.82 71.44,53.32 101.86,99.46 30.42,46.49 45.46,94 45.46,142.54l0 529.12 69.73 0c20.51,0 35.2,3.76 44.09,11.63 8.89,7.52 13.33,17.77 13.33,30.42 0,11.96 -4.44,21.87 -13.33,30.08 -8.89,7.86 -23.58,11.96 -44.09,11.96l-223.55 0c-20.85,0 -35.55,-4.1 -44.43,-11.96 -8.55,-8.21 -12.99,-18.12 -12.99,-30.08 0,-12.65 4.44,-22.9 12.99,-30.42 8.88,-7.87 23.58,-11.63 44.43,-11.63l69.73 0 0 -515.79c0,-59.47 -21.53,-109.72 -64.94,-150.74 -43.41,-41.02 -101.52,-61.52 -174.33,-61.52 -55.37,0 -103.57,11.28 -144.24,33.49 -40.68,22.56 -98.78,78.28 -174.32,167.49l0 527.07 92.28 0c20.51,0 35.21,3.76 44.1,11.63 8.89,7.52 13.33,17.77 13.33,30.42 0,11.96 -4.44,21.87 -13.33,30.08 -8.89,7.86 -23.59,11.96 -44.1,11.96l-268.66 0c-20.51,0 -35.21,-4.1 -44.09,-11.96 -8.89,-8.21 -13.33,-18.12 -13.33,-30.08 0,-12.65 4.44,-22.9 13.33,-30.42 8.88,-7.87 23.58,-11.63 44.09,-11.63l92.29 0 0 -699.34 -69.73 0c-20.51,0 -35.21,-3.76 -44.09,-11.62 -8.89,-7.87 -13.33,-18.12 -13.33,-30.43 0,-11.96 4.44,-21.87 13.33,-30.07 8.88,-7.87 23.58,-11.97 44.09,-11.97l153.82 0z"/>
   <path id="2" class="fil1" d="M13810.89 12037.38l-857.26 0c14.7,108.35 60.16,195.51 136.38,261.82 76.23,65.97 170.57,99.13 283.37,99.13 62.55,0 128.17,-10.6 196.88,-31.45 68.36,-20.85 124.42,-48.19 167.83,-82.72 12.65,-9.91 23.58,-15.04 32.81,-15.04 10.6,0 20.17,4.11 28.03,12.65 7.86,8.2 11.96,18.12 11.96,29.74 0,11.28 -5.46,22.22 -16.06,33.15 -31.79,33.5 -88.53,64.95 -170.22,94 -81.35,29.06 -165.1,43.75 -250.89,43.75 -143.91,0 -263.88,-47.17 -359.93,-141.51 -96.05,-94.34 -144.25,-208.5 -144.25,-342.49 0,-122.03 45.12,-226.62 135.7,-314.13 90.24,-87.16 202.01,-130.91 335.66,-130.91 137.07,0 250.21,44.78 339.08,134.67 88.53,89.9 132.28,206.46 130.91,349.34zm-84.08 -84.09c-16.75,-93.66 -60.84,-169.54 -131.94,-227.99 -71.44,-58.45 -156.21,-87.84 -254.65,-87.84 -98.44,0 -183.21,29.05 -253.97,86.82 -71.09,57.76 -115.19,133.99 -132.62,229.01l773.18 0z"/>
   <path id="3" class="fil1" d="M14806.38 11582.08l455.29 0c20.51,0 35.21,3.76 44.09,11.62 8.89,7.87 13.33,18.12 13.33,30.42 0,11.97 -4.44,21.88 -13.33,30.08 -8.88,7.87 -23.58,11.97 -44.09,11.97l-455.29 0 0 560.57c0,48.88 19.48,89.55 58.45,122.37 39.31,32.81 96.39,49.22 171.93,49.22 56.74,0 118.26,-8.55 184.23,-25.64 65.97,-16.75 117.59,-36.23 154.16,-57.42 13.33,-8.55 24.27,-12.99 33.16,-12.99 10.59,0 19.82,4.1 28.03,12.3 7.86,8.55 11.96,18.46 11.96,29.74 0,9.91 -4.44,19.14 -12.99,28.03 -21.19,21.88 -73.15,45.8 -155.52,71.44 -82.38,25.64 -161,38.62 -236.54,38.62 -98.1,0 -176.03,-22.9 -233.8,-69.04 -58.1,-46.15 -87.16,-108.36 -87.16,-186.63l0 -560.57 -155.18 0c-20.17,0 -34.52,-4.1 -43.07,-11.97 -8.54,-7.86 -12.99,-18.11 -12.99,-30.42 0,-11.96 4.45,-21.87 12.99,-29.73 8.55,-7.87 22.9,-11.97 43.07,-11.97l155.18 0 0 -249.18c0,-20.17 4.1,-34.52 11.96,-43.41 7.87,-8.54 17.78,-12.99 29.74,-12.99 12.31,0 22.56,4.45 30.42,12.99 7.87,8.89 11.97,23.24 11.97,43.41l0 249.18z"/>
   <path class="fil2 str0" d="M9856.09 2296.5l2843.59 -2078.9 2844.22 2070.76 -2844.22 2056.91 -2843.59 -2048.77zm0 0l31 2852.14 2812.59 2082.64 0 -2886.01m2844.22 -2056.91l0 2891.91 -2844.22 2051.01"/>
  </g>
 </g>
</svg>
