<?xml version="1.0" encoding="UTF-8"?>
<!DOCTYPE svg PUBLIC "-//W3C//DTD SVG 1.1//EN" "http://www.w3.org/Graphics/SVG/1.1/DTD/svg11.dtd">
<!-- Creator: CorelDRAW 2020 (64 Bit) -->
<svg xmlns="http://www.w3.org/2000/svg" xml:space="preserve" width="254mm" height="127mm" version="1.1" style="shape-rendering:geometricPrecision; text-rendering:geometricPrecision; image-rendering:optimizeQuality; fill-rule:evenodd; clip-rule:evenodd"
viewBox="0 0 25400 12700"
 xmlns:xlink="http://www.w3.org/1999/xlink"
 xmlns:xodm="http://www.corel.com/coreldraw/odm/2003">
 <defs>
  <style type="text/css">
   <![CDATA[
    .str0 {stroke:#fcba03;stroke-width:211.67;stroke-linecap:round;stroke-linejoin:round;stroke-miterlimit:22.9256}
    .fil2 {fill:none}
    .fil1 {fill:#fcba03;fill-rule:nonzero}
    .fil0 {fill:#fcba03;fill-rule:nonzero}
   ]]>
  </style>
 </defs>
 <g id="Camada_x0020_1">
  <metadata id="CorelCorpID_0Corel-Layer"/>
  <path class="fil0" d="M7054.16 9264.97c-16.12,75.54 -30.4,149.69 -41.91,222l-29.94 164.89c-89.35,18.88 -158.9,31.32 -208.64,36.39 -50.21,5.06 -98.57,7.83 -145.55,7.83 -76.45,0 -144.62,-6.45 -204.04,-19.81 -59.41,-12.9 -109.15,-36.85 -148.76,-71.39 -39.61,-34.54 -66.79,-74.61 -81.07,-119.29 -14.27,-45.14 -21.64,-93.04 -21.64,-143.24 0,-9.21 0.46,-24.87 1.38,-47.9 0.92,-23.03 4.14,-74.16 9.21,-153.38l29.48 -467.49 -211.41 0c4.61,-62.17 8.75,-143.7 11.98,-245.03l4.14 -125.27 224.3 0c5.53,-41.46 12.44,-131.73 20.27,-270.83l231.21 -47.9c42.38,-8.29 132.65,-29.01 270.82,-62.64 -6.44,117.91 -11.05,245.03 -13.35,381.37l306.28 0c-7.37,186.53 -10.59,309.97 -10.59,370.3l-309.51 0 -16.12 338.07c-1.84,50.2 -2.76,82.45 -2.76,97.18 0,43.3 4.6,79.22 14.27,108.24 9.22,28.56 26.26,49.28 50.21,62.18 23.95,12.43 50.2,18.88 79.22,18.88 21.64,0 44.21,-1.38 67.7,-4.6 23.49,-3.23 64.94,-12.44 124.82,-28.56z"/>
  <path id="1" class="fil0" d="M7650 8109.83c5.52,-106.85 8.29,-191.14 8.29,-253.32 0,-17.96 -0.46,-42.37 -1.38,-72.77 108.69,1.84 199.43,2.76 273.12,2.76 101.33,0 190.22,-0.92 266.68,-2.76 -2.77,27.64 -4.61,51.12 -5.53,70.01l-7.83 167.19c-1.84,24.87 -2.76,54.81 -2.76,88.89 -88.89,-1.84 -174.1,-2.76 -256.09,-2.76 -84.28,0 -175.94,0.92 -274.5,2.76zm-85.67 1550.32c12.44,-110.08 21.65,-200.35 27.63,-271.28 6.45,-71.39 12.44,-162.13 17.97,-273.13 5.98,-110.54 11.05,-233.05 15.2,-367.08 4.6,-134.49 8.29,-290.17 10.59,-467.49 116.99,1.84 210.49,2.76 280.49,2.76 64.02,0 155.68,-0.92 275.43,-2.76 -14.74,169.95 -25.33,319.64 -31.32,448.61 -6.45,128.5 -10.59,264.83 -12.43,408.99 -3.23,255.62 -5.07,429.72 -5.07,521.38 -107.32,-1.84 -199.43,-2.76 -277.27,-2.76 -76.46,0 -176.86,0.92 -301.22,2.76z"/>
  <path id="2" class="fil0" d="M8785.17 9660.15l38.69 -650.8 22.11 -509.41 2.76 -218.77c99.03,1.84 186.08,2.76 261.61,2.76 85.67,0 168.58,-0.92 249.64,-2.76l-9.67 181.47c27.63,-35.93 51.58,-64.02 70.93,-82.91 18.88,-19.34 42.83,-37.76 70.47,-55.73 28.09,-17.5 56.65,-31.32 86.59,-41.45 29.47,-10.59 63.09,-18.88 99.94,-25.33 36.85,-5.99 75.54,-9.21 115.61,-9.21 46.06,0 88.43,3.68 127.12,11.51 38.69,7.37 71.85,17.04 99.94,29.02 27.64,11.51 52.05,24.87 72.78,40.53 20.72,15.2 38.68,32.24 54.34,51.58 16.13,19.35 34.09,47.44 54.81,84.29 39.61,-57.11 81.07,-100.87 125.28,-130.8 43.76,-29.48 93.96,-51.13 150.15,-65.41 56.19,-13.81 113.77,-20.72 173.18,-20.72 77.84,0 151.53,11.05 220.62,33.62 69.09,22.57 126.2,61.26 170.41,116.99 44.68,55.27 66.79,126.66 66.79,215.09 0,40.99 -2.76,103.63 -8.75,187.46 -5.53,83.36 -13.36,227.06 -23.49,430.64 -10.13,203.58 -15.66,346.36 -16.58,428.34 -82.91,-1.84 -163.05,-2.76 -240.43,-2.76 -94.42,0 -192.98,0.92 -296.61,2.76 8.75,-114.22 17.5,-257.47 26.25,-429.72 9.21,-172.26 13.36,-291.55 13.36,-357.87 0,-58.04 -6.45,-101.79 -19.81,-130.35 -13.35,-28.56 -30.39,-47.9 -51.12,-58.49 -20.73,-10.6 -43.76,-15.66 -68.63,-15.66 -26.25,0 -49.28,5.06 -69.08,14.74 -21.19,11.05 -39.61,27.63 -55.74,50.2 -21.18,29.94 -38.68,67.7 -51.58,112.84 -11.05,35.47 -19.34,88.89 -25.33,161.67 -6.45,73.69 -11.52,170.87 -15.2,291.08l-11.06 361.56c-96.72,-1.84 -184.23,-2.76 -261.61,-2.76 -79.68,0 -173.17,0.92 -280.95,2.76 8.29,-80.14 17.5,-214.63 28.09,-403.47 11.06,-188.84 16.13,-315.04 16.13,-378.6 0,-53.89 -5.07,-94.42 -16.13,-121.13 -10.59,-27.17 -25.79,-48.36 -45.59,-64.48 -19.35,-16.12 -45.14,-24.41 -77.84,-24.41 -35.01,0 -65.86,10.13 -92.12,30.86 -26.25,20.72 -48.82,50.2 -67.24,88.89 -18.43,38.69 -31.78,92.11 -39.15,159.82 -7.83,67.71 -14.74,171.34 -20.27,310.43 -5.98,139.56 -9.67,273.59 -11.51,402.09 -108.7,-1.84 -196.67,-2.76 -264.38,-2.76 -74.61,0 -167.19,0.92 -277.73,2.76z"/>
  <path id="3" class="fil0" d="M13043.55 9253.92c-11.52,53.89 -33.62,183.77 -66.32,389.65 -104.56,21.19 -192.53,35 -263.92,41.91 -71.39,6.91 -143.24,10.6 -216.47,10.6 -107.32,0 -206.34,-7.37 -296.16,-22.11 -90.27,-14.74 -168.11,-41.45 -233.51,-79.22 -65.4,-37.31 -120.21,-84.29 -164.43,-140.48 -44.21,-56.19 -77.84,-122.98 -100.87,-200.35 -23.02,-77.38 -34.54,-157.06 -34.54,-238.58 0,-115.15 23.03,-227.99 69.09,-338.07 45.6,-110.08 105.01,-196.21 177.32,-257.93 72.77,-62.18 156.14,-106.39 250.56,-132.18 94.42,-26.26 191.6,-39.15 290.63,-39.15 102.25,0 200.35,11.97 293.39,35.92 93.49,23.49 172.25,65.4 237.2,124.36 64.94,59.41 111,126.2 138.63,200.81 27.18,74.62 40.99,155.22 40.99,241.35 0,51.58 -5.52,108.23 -16.58,171.33l-949.26 1.39c-0.92,14.27 -1.38,27.17 -1.38,39.14 0,96.73 35.01,168.12 104.55,214.18 69.55,45.59 154.3,68.62 254.71,68.62 59.41,0 127.58,-6.91 204.03,-20.72 76,-13.82 170.42,-37.31 282.34,-70.47zm-833.65 -436.63l446.76 0c0.92,-15.2 1.38,-28.1 1.38,-39.15 0,-46.52 -8.29,-86.59 -24.87,-119.76 -17.04,-33.16 -40.99,-57.11 -71.85,-72.31 -31.32,-15.2 -66.32,-23.03 -105.01,-23.03 -27.18,0 -52.97,4.15 -78.3,12.9 -25.33,8.29 -48.36,21.19 -68.63,37.77 -20.26,16.58 -37.31,35.46 -50.66,57.11 -13.36,21.19 -23.49,42.37 -29.94,62.18 -5.99,20.26 -12.44,48.36 -18.88,84.29z"/>
  <path id="4" class="fil0" d="M15209.05 9660.15c-96.26,-1.84 -176.4,-2.76 -240.42,-2.76 -72.32,0 -159.83,0.92 -262.54,2.76l7.83 -170.42c-35,34.09 -65.86,61.72 -91.65,82.91 -26.25,21.19 -59.88,41.45 -100.87,61.26 -40.99,19.8 -84.75,35 -132.19,46.06 -46.98,10.59 -95.8,16.12 -146.46,16.12 -86.13,0 -167.19,-15.66 -242.27,-47.44 -75.07,-31.32 -139.09,-76 -192.06,-134.03 -52.97,-58.04 -92.58,-127.12 -118.83,-206.34 -26.25,-79.69 -39.15,-162.59 -39.15,-247.8 0,-121.59 23.95,-240.42 71.85,-356.49 47.44,-116.06 110.08,-207.26 187,-273.58 77.38,-66.79 164.43,-113.77 261.15,-141.4 96.72,-27.18 201.73,-40.99 314.58,-40.99 74.61,0 162.12,6.44 262.07,19.34 6.9,-107.31 11.05,-257.46 13.35,-450.45 110.54,1.84 200.82,2.77 270.83,2.77 90.73,0 181.92,-0.93 274.5,-2.77 -25.33,267.14 -47.9,593.69 -67.24,979.2 -19.35,385.05 -29.48,673.37 -29.48,864.05zm-480.39 -1041.84c-47.9,-11.05 -93.03,-16.58 -135.41,-16.58 -87.97,0 -162.58,17.04 -223.84,50.67 -61.26,33.62 -108.7,86.13 -141.86,157.98 -32.7,71.39 -49.28,141.86 -49.28,210.94 0,52.51 9.21,99.49 27.63,140.94 18.89,41.91 46.98,75.08 85.67,99.49 38.23,24.41 81.06,36.38 128.04,36.38 49.75,0 94.88,-13.81 136.33,-41.91 41,-27.64 74.16,-68.63 99.95,-122.51 25.79,-53.89 43.76,-118.37 52.97,-192.53 9.67,-74.15 16.12,-181.93 19.8,-322.87z"/>
  <path id="5" class="fil0" d="M17197.22 9253.92c-11.52,53.89 -33.62,183.77 -66.32,389.65 -104.56,21.19 -192.53,35 -263.92,41.91 -71.39,6.91 -143.24,10.6 -216.47,10.6 -107.32,0 -206.34,-7.37 -296.16,-22.11 -90.27,-14.74 -168.11,-41.45 -233.51,-79.22 -65.4,-37.31 -120.21,-84.29 -164.43,-140.48 -44.21,-56.19 -77.84,-122.98 -100.87,-200.35 -23.02,-77.38 -34.54,-157.06 -34.54,-238.58 0,-115.15 23.03,-227.99 69.09,-338.07 45.6,-110.08 105.01,-196.21 177.32,-257.93 72.77,-62.18 156.14,-106.39 250.56,-132.18 94.42,-26.26 191.6,-39.15 290.63,-39.15 102.25,0 200.35,11.97 293.39,35.92 93.49,23.49 172.25,65.4 237.2,124.36 64.94,59.41 111,126.2 138.63,200.81 27.18,74.62 40.99,155.22 40.99,241.35 0,51.58 -5.52,108.23 -16.58,171.33l-949.26 1.39c-0.92,14.27 -1.38,27.17 -1.38,39.14 0,96.73 35.01,168.12 104.55,214.18 69.55,45.59 154.3,68.62 254.71,68.62 59.41,0 127.58,-6.91 204.03,-20.72 76,-13.82 170.42,-37.31 282.34,-70.47zm-833.65 -436.63l446.76 0c0.92,-15.2 1.38,-28.1 1.38,-39.15 0,-46.52 -8.29,-86.59 -24.87,-119.76 -17.04,-33.16 -40.99,-57.11 -71.85,-72.31 -31.32,-15.2 -66.32,-23.03 -105.01,-23.03 -27.18,0 -52.97,4.15 -78.3,12.9 -25.33,8.29 -48.36,21.19 -68.63,37.77 -20.26,16.58 -37.31,35.46 -50.66,57.11 -13.36,21.19 -23.49,42.37 -29.94,62.18 -5.99,20.26 -12.44,48.36 -18.88,84.29z"/>
  <path id="6" class="fil0" d="M18214.03 9660.15l-142.78 -443.08 -322.41 -935.9c102.71,1.84 197.59,2.76 286.02,2.76 91.66,0 177.79,-0.92 258.85,-2.76 15.2,62.18 45.14,170.87 90.27,326.09 45.14,155.22 94.42,340.37 148.31,554.54l35.01 -111.92c5.52,-13.82 26.71,-71.39 63.56,-173.18l214.63 -595.53c97.18,1.84 188.83,2.76 274.96,2.76 89.36,0 181.93,-0.92 278.19,-2.76l-186.07 401.17 -346.82 796.8 -74.15 181.01c-106.4,-1.84 -199.89,-2.76 -280.96,-2.76 -87.97,0 -186.99,0.92 -296.61,2.76z"/>
  <path class="fil1" d="M10491.96 11302.06l30.62 0c31.48,0 58.35,10.98 80.88,33.22 22.53,22.25 33.8,49.11 33.8,80.6 0,32.64 -11.27,60.08 -34.09,82.04 -22.82,21.95 -49.68,32.93 -80.59,32.93l-30.62 0c-31.49,0 -58.36,-10.98 -80.89,-33.22 -22.53,-22.24 -33.8,-49.11 -33.8,-80.89 0,-32.64 11.27,-59.79 34.09,-81.75 22.82,-21.95 49.69,-32.93 80.6,-32.93z"/>
  <path id="1" class="fil1" d="M11650.15 10771.7l0 109.19c49.68,-50.55 94.46,-85.22 134.61,-104.57 40.15,-19.35 85.22,-28.89 135.48,-28.89 54.02,0 103.42,11.56 147.9,34.67 31.78,16.75 60.38,45.06 86.09,84.06 25.71,39.28 38.42,79.44 38.42,120.46l0 447.17 58.93 0c17.33,0 29.75,3.18 37.26,9.82 7.51,6.35 11.27,15.02 11.27,25.71 0,10.11 -3.76,18.49 -11.27,25.42 -7.51,6.64 -19.93,10.11 -37.26,10.11l-188.93 0c-17.62,0 -30.04,-3.47 -37.55,-10.11 -7.22,-6.93 -10.98,-15.31 -10.98,-25.42 0,-10.69 3.76,-19.36 10.98,-25.71 7.51,-6.64 19.93,-9.82 37.55,-9.82l58.93 0 0 -435.91c0,-50.26 -18.2,-92.72 -54.88,-127.39 -36.69,-34.66 -85.8,-52 -147.33,-52 -46.79,0 -87.52,9.54 -121.9,28.31 -34.37,19.07 -83.48,66.16 -147.32,141.55l0 445.44 77.99 0c17.33,0 29.76,3.18 37.27,9.82 7.51,6.35 11.26,15.02 11.26,25.71 0,10.11 -3.75,18.49 -11.26,25.42 -7.51,6.64 -19.94,10.11 -37.27,10.11l-227.05 0c-17.33,0 -29.75,-3.47 -37.26,-10.11 -7.51,-6.93 -11.27,-15.31 -11.27,-25.42 0,-10.69 3.76,-19.36 11.27,-25.71 7.51,-6.64 19.93,-9.82 37.26,-9.82l78 0 0 -591.03 -58.93 0c-17.34,0 -29.76,-3.18 -37.27,-9.82 -7.51,-6.65 -11.26,-15.31 -11.26,-25.71 0,-10.11 3.75,-18.49 11.26,-25.42 7.51,-6.65 19.93,-10.11 37.27,-10.11l129.99 0z"/>
  <path id="2" class="fil1" d="M13638.84 11156.47l-724.49 0c12.43,91.57 50.85,165.24 115.26,221.28 64.42,55.75 144.15,83.77 239.48,83.77 52.86,0 108.32,-8.96 166.39,-26.58 57.77,-17.62 105.15,-40.73 141.83,-69.9 10.69,-8.38 19.93,-12.71 27.73,-12.71 8.96,0 17.05,3.46 23.69,10.68 6.64,6.94 10.11,15.31 10.11,25.14 0,9.53 -4.62,18.77 -13.58,28.02 -26.86,28.31 -74.81,54.88 -143.85,79.44 -68.75,24.55 -139.53,36.97 -212.03,36.97 -121.62,0 -223.01,-39.86 -304.18,-119.59 -81.18,-79.73 -121.91,-176.21 -121.91,-289.45 0,-103.12 38.13,-191.52 114.68,-265.47 76.27,-73.66 170.73,-110.64 283.67,-110.64 115.84,0 211.46,37.84 286.56,113.82 74.82,75.97 111.8,174.48 110.64,295.22zm-71.06 -71.06c-14.16,-79.15 -51.42,-143.28 -111.5,-192.68 -60.38,-49.39 -132.02,-74.24 -215.21,-74.24 -83.2,0 -154.84,24.56 -214.63,73.38 -60.09,48.82 -97.35,113.23 -112.09,193.54l653.43 0z"/>
  <path id="3" class="fil1" d="M14480.14 10771.7l384.78 0c17.33,0 29.75,3.18 37.26,9.82 7.51,6.64 11.27,15.31 11.27,25.71 0,10.11 -3.76,18.49 -11.27,25.42 -7.51,6.64 -19.93,10.11 -37.26,10.11l-384.78 0 0 473.75c0,41.31 16.47,75.68 49.4,103.41 33.22,27.73 81.46,41.6 145.3,41.6 47.95,0 99.95,-7.22 155.7,-21.67 55.75,-14.15 99.37,-30.62 130.28,-48.53 11.27,-7.22 20.51,-10.97 28.02,-10.97 8.96,0 16.76,3.46 23.69,10.4 6.64,7.22 10.11,15.6 10.11,25.13 0,8.38 -3.76,16.17 -10.98,23.69 -17.91,18.48 -61.82,38.7 -131.43,60.37 -69.62,21.66 -136.06,32.64 -199.9,32.64 -82.91,0 -148.77,-19.35 -197.59,-58.35 -49.11,-39 -73.66,-91.57 -73.66,-157.72l0 -473.75 -131.15 0c-17.04,0 -29.17,-3.47 -36.39,-10.11 -7.23,-6.64 -10.98,-15.31 -10.98,-25.71 0,-10.11 3.75,-18.49 10.98,-25.13 7.22,-6.65 19.35,-10.11 36.39,-10.11l131.15 0 0 -210.59c0,-17.04 3.47,-29.17 10.11,-36.68 6.64,-7.23 15.02,-10.98 25.13,-10.98 10.4,0 19.07,3.75 25.71,10.98 6.65,7.51 10.11,19.64 10.11,36.68l0 210.59z"/>
  <path class="fil2 str0" d="M10296.57 2924.34l2403.16 -1756.9 2403.68 1750.02 -2403.68 1738.32 -2403.16 -1731.44zm0 0l26.2 2410.38 2376.96 1760.06 0 -2439m2403.68 -1738.32l0 2443.99 -2403.68 1733.33"/>
 </g>
</svg>
